<svg xmlns="http://www.w3.org/2000/svg" viewBox="0 0 250 154">
  <path fill="#fff" d="M114.5 0H249v143.9H114.5zM0 0h101.9v143.9H0zm101.9 143.9l-11.6 8.9-12.1-8.9 11-2.6zm35.2 0l-11.6 8.9-11.4-8.9 10.3-2.6zm24.1 0l-11.6 8.9-12.1-8.9 11-2.6z"/>
  <path fill="#a2a9b1" d="M122.6 51.5v98.4l3.52 3.04 11.28-9.04 8.9 6.1V51.5zm29.3-27.6v127.6l10.5-7.5 11.9 9.5 13.1-9.5 13.4 9.5 12.3-9.5 12.3 9.5 13.1-9.5 11.5 9.5-.1-129.5h-98zm-31.2 10.6c0-7.3 6-13.3 13.3-13.3 7.3 0 13.3 6 13.3 13.3 0 7.3-6 13.3-13.3 13.3-7.3-.1-13.3-6-13.3-13.3zM245.3 5.7v3.8h-87.1V5.7zm.9-1h-89v5.7h89zm-123.6 0h20.8v5.7h-20.8zm-50.2 0H97v5.7H72.4zm-22.7 0h20.8v5.7H49.7zm-47.3 0h44.5v5.7H2.4zM0 0v.9h101.3v143l-7.6 5.7V23.9H0v119.92l14.9 9.58 12.1-9.5 12.1 9.5 13.1-9.4 11.8 9.4 13.1-9.5 13.2 9.5 12.1-9V0z"/>
  <path d="M77.5 90.9L63.5 77l-9.3 4.6-13.9-13.9-18.6 23.2zm9.3-51.1v60.4H12.4V39.8z"/>
  <path fill="#36c" stroke="#36c" stroke-width="1.9" d="M159.7 124.7h17.2v10.1h-17.2zm-146.3-.4h17.2v10.1H13.4z"/>
  <path fill="#eaecf0" stroke="#36c" stroke-width="1.65" d="M182.5 124.9h17.1v10h-17.1zm-146.3-.4h17.1v10H36.2z"/>
  <path fill="#a2a9b1" d="M113.6 0v144.04l12.4 9.36 10.7-9.5 12.9 9.5 9.5-8-.9-.4-8.6 7.3-12.3-9.1-.6-.5-.6.5-10.1 9-11.4-8.56V.9h134.5V0z" class="st2"/>
  <path fill="#36c" d="M90.1 80.2h37.5v15l26.8-22.6L127.6 50v15h-21.4s-5.8-.7-11.2 4.1c-5.3 4.9-4.9 11.1-4.9 11.1zm133.6 11.1l-13.9-13.9-9.3 4.6-13.9-13.9L168 91.3zm9.3-51.1v60.4h-74.4V40.2z"/>
  <path fill="#eaecf0" stroke="#36c" stroke-width="1.65" d="M159.6 105.6H232v13h-72.3v-13zm-146.2-.4h72.3v13H13.4z"/>
  <path fill="none" stroke="#a2a9b1" stroke-width="1.8" d="M164.8 112.6h59.7v.4h-59.7zm-146.2-.4h59.7v.4H18.6z"/>
  <path fill="none" stroke="#eaecf0" stroke-width="1.03" d="M163.3 129.4h10.3v.8h-10.3zM17 129h10.3v.8H17z"/>
  <path fill="none" stroke="#36c" stroke-width="1.03" d="M186 129.6h10.3v.8H186zm-146.3-.4H50v.8H39.7z"/>
  <path fill="#a2a9b1" fill-rule="evenodd" d="M151.9 141.8v9.7l13.7-9.7z" clip-rule="evenodd"/>
  <path fill="none" stroke="#a2a9b1" stroke-width=".87" d="M.4 0l.1 143.9m115-130.2H249m-247.5 0H100"/>
  <path fill="#a2a9b1" d="M249.5 0l.1 153.4z" class="st2"/>
  <path fill="none" stroke="#a2a9b1" stroke-width=".9" d="M249.5 0l.1 153.4"/>
</svg>
