<svg xmlns="http://www.w3.org/2000/svg" viewBox="0 0 250 154">
  <path fill="#fff" d="M135.51 0H1.01v143.9h134.5zm114.5 0h-101.9v143.9h101.9zm-101.9 143.9l11.6 8.9 12.1-8.9-11-2.6zm-35.2 0l11.6 8.9 11.4-8.9-10.3-2.6zm-24.1 0l11.6 8.9 12.1-8.9-11-2.6z"/>
  <path fill="#a2a9b1" d="M127.41 51.5v98.4l-3.52 3.04-11.28-9.04-8.9 6.1V51.5zm-29.3-27.6v127.6l-10.5-7.5-11.9 9.5-13.1-9.5-13.4 9.5-12.3-9.5-12.3 9.5-13.1-9.5-11.5 9.5L.11 24h98zm31.2 10.6c0-7.3-6-13.3-13.3-13.3-7.3 0-13.3 6-13.3 13.3 0 7.3 6 13.3 13.3 13.3 7.3-.1 13.3-6 13.3-13.3zM4.71 5.7v3.8h87.1V5.7zm-.9-1h89v5.7h-89zm123.6 0h-20.8v5.7h20.8zm50.2 0h-24.6v5.7h24.6zm22.7 0h-20.8v5.7h20.8zm47.3 0h-44.5v5.7h44.5zm2.4-4.7v.9h-101.3v143l7.6 5.7V23.9h93.7v119.92l-14.9 9.58-12.1-9.5-12.1 9.5-13.1-9.4-11.8 9.4-13.1-9.5-13.2 9.5-12.1-9V0z"/>
  <path d="M172.51 90.9l14-13.9 9.3 4.6 13.9-13.9 18.6 23.2zm-9.3-51.1v60.4h74.4V39.8z"/>
  <path fill="#36c" stroke="#36c" stroke-width="1.9" d="M90.31 124.7h-17.2v10.1h17.2zm146.3-.4h-17.2v10.1h17.2z"/>
  <path fill="#eaecf0" stroke="#36c" stroke-width="1.65" d="M67.51 124.9h-17.1v10h17.1zm146.3-.4h-17.1v10h17.1z"/>
  <path fill="#a2a9b1" d="M136.41 0v144.04l-12.4 9.36-10.7-9.5-12.9 9.5-9.5-8 .9-.4 8.6 7.3 12.3-9.1.6-.5.6.5 10.1 9 11.4-8.56V.9H.91V0z" class="st2"/>
  <path fill="#36c" d="M159.91 80.2h-37.5v15l-26.8-22.6 26.8-22.6v15h21.4s5.8-.7 11.2 4.1c5.3 4.9 4.9 11.1 4.9 11.1zM26.31 91.3l13.9-13.9 9.3 4.6 13.9-13.9 18.6 23.2zm-9.3-51.1v60.4h74.4V40.2z"/>
  <path fill="#eaecf0" stroke="#36c" stroke-width="1.65" d="M90.41 105.6h-72.4v13h72.3v-13zm146.2-.4h-72.3v13h72.3z"/>
  <path fill="none" stroke="#a2a9b1" stroke-width="1.8" d="M85.21 112.6h-59.7v.4h59.7zm146.2-.4h-59.7v.4h59.7z"/>
  <path fill="none" stroke="#eaecf0" stroke-width="1.03" d="M86.71 129.4h-10.3v.8h10.3zm146.3-.4h-10.3v.8h10.3z"/>
  <path fill="none" stroke="#36c" stroke-width="1.03" d="M64.01 129.6h-10.3v.8h10.3zm146.3-.4h-10.3v.8h10.3z"/>
  <path fill="#a2a9b1" fill-rule="evenodd" d="M98.11 141.8v9.7l-13.7-9.7z" clip-rule="evenodd"/>
  <path fill="none" stroke="#a2a9b1" stroke-width=".87" d="M249.61 0l-.1 143.9m-115-130.2H1.01m247.5 0h-98.5"/>
  <path fill="#a2a9b1" d="M.51 0l-.1 153.4z" class="st2"/>
  <path fill="none" stroke="#a2a9b1" stroke-width=".9" d="M.51 0l-.1 153.4"/>
</svg>
